<svg width="24" height="24" viewBox="0 0 24 24" fill="none" xmlns="http://www.w3.org/2000/svg">
<path d="M18.6903 6.33105H5.19031C4.98718 6.33105 4.8114 6.40527 4.66296 6.55371C4.51453 6.70215 4.44031 6.87793 4.44031 7.08105V7.83105C4.44031 8.03418 4.51453 8.20996 4.66296 8.3584C4.8114 8.50684 4.98718 8.58105 5.19031 8.58105H18.6903C18.8934 8.58105 19.0692 8.50684 19.2177 8.3584C19.3661 8.20996 19.4403 8.03418 19.4403 7.83105V7.08105C19.4403 6.87793 19.3661 6.70215 19.2177 6.55371C19.0692 6.40527 18.8934 6.33105 18.6903 6.33105ZM18.6903 10.8311H5.19031C4.98718 10.8311 4.8114 10.9053 4.66296 11.0537C4.51453 11.2021 4.44031 11.3779 4.44031 11.5811V12.3311C4.44031 12.5342 4.51453 12.71 4.66296 12.8584C4.8114 13.0068 4.98718 13.0811 5.19031 13.0811H18.6903C18.8934 13.0811 19.0692 13.0068 19.2177 12.8584C19.3661 12.71 19.4403 12.5342 19.4403 12.3311V11.5811C19.4403 11.3779 19.3661 11.2021 19.2177 11.0537C19.0692 10.9053 18.8934 10.8311 18.6903 10.8311ZM18.6903 15.3311H5.19031C4.98718 15.3311 4.8114 15.4053 4.66296 15.5537C4.51453 15.7021 4.44031 15.8779 4.44031 16.0811V16.8311C4.44031 17.0342 4.51453 17.21 4.66296 17.3584C4.8114 17.5068 4.98718 17.5811 5.19031 17.5811H18.6903C18.8934 17.5811 19.0692 17.5068 19.2177 17.3584C19.3661 17.21 19.4403 17.0342 19.4403 16.8311V16.0811C19.4403 15.8779 19.3661 15.7021 19.2177 15.5537C19.0692 15.4053 18.8934 15.3311 18.6903 15.3311Z" fill="#030407"/>
</svg>
