<svg width="32" height="32" viewBox="0 0 32 32" fill="none" xmlns="http://www.w3.org/2000/svg">
<g clip-path="url(#clip0_4_1786)">
<mask id="mask0_4_1786" style="mask-type:luminance" maskUnits="userSpaceOnUse" x="0" y="0" width="32" height="32">
<path d="M31.7461 0H0V31.7461H31.7461V0Z" fill="white"/>
</mask>
<g mask="url(#mask0_4_1786)">
<path d="M15.8727 1.05371C24.0572 1.05371 30.6793 7.67572 30.6793 15.8478C30.6793 24.02 24.0572 30.6544 15.8727 30.6544C7.68817 30.6544 1.06616 24.0324 1.06616 15.8603C1.06616 7.68814 7.68817 1.05371 15.8727 1.05371Z" fill="#E74D89"/>
<path d="M15.873 31.7088C7.11806 31.7088 0 24.6032 0 15.8606C0 7.10565 7.11806 0 15.873 0C24.628 0 31.7461 7.10565 31.7461 15.8482C31.7461 24.5908 24.628 31.7088 15.873 31.7088ZM29.2535 18.0184C28.7947 17.8696 25.062 16.7659 20.8085 17.4355C22.5819 22.2966 23.3011 26.2649 23.4375 27.0834C26.4881 25.0372 28.6582 21.7882 29.2535 18.0184ZM21.1682 28.3358C20.9698 27.1454 20.1761 23.0035 18.2788 18.068C18.2539 18.0804 18.2168 18.0927 18.192 18.0927C10.5406 20.7589 7.80008 26.0541 7.55208 26.5501C9.84625 28.3358 12.7356 29.4023 15.873 29.4023C17.7455 29.4147 19.5436 29.0302 21.1682 28.3358ZM5.80357 24.9256C6.11359 24.4047 9.83383 18.2539 16.8279 15.9846C17.0015 15.9226 17.1875 15.873 17.3611 15.8234C17.0263 15.0546 16.6542 14.2857 16.2574 13.5293C9.48663 15.5506 2.91419 15.4638 2.31895 15.4514C2.31895 15.5878 2.30654 15.7242 2.30654 15.8606C2.31895 19.3452 3.63343 22.5198 5.80357 24.9256ZM2.60417 13.0952C3.2118 13.1077 8.79215 13.1324 15.1413 11.4459C12.8968 7.45288 10.4663 4.10466 10.119 3.62103C6.312 5.40674 3.48462 8.90377 2.60417 13.0952ZM12.6984 2.70338C13.0704 3.19941 15.5382 6.54762 17.7579 10.6275C22.5819 8.81699 24.6155 6.08879 24.8636 5.74157C22.4702 3.62103 19.3205 2.33135 15.873 2.33135C14.7817 2.33135 13.7153 2.46776 12.6984 2.70338ZM26.3641 7.30407C26.0789 7.68846 23.8095 10.6027 18.7996 12.6488C19.1096 13.2936 19.4197 13.9509 19.7048 14.6082C19.804 14.8437 19.9032 15.0794 20.0025 15.3026C24.5163 14.7321 28.9931 15.6498 29.4395 15.7366C29.4023 12.5496 28.2614 9.61059 26.3641 7.30407Z" fill="#B2215A"/>
</g>
</g>
<defs>
<clipPath id="clip0_4_1786">
<rect width="32" height="32" fill="white"/>
</clipPath>
</defs>
</svg>
