<svg width="24" height="24" viewBox="0 0 24 24" fill="none" xmlns="http://www.w3.org/2000/svg">
<g clip-path="url(#clip0_4_1807)">
<g clip-path="url(#clip1_4_1807)">
<path d="M12.028 2.00005L12.2832 2.00474C16.8591 2.15571 20.5148 5.93197 20.4992 10.5527L20.499 10.655C20.447 13.4113 19.0679 16.1253 16.7798 18.5473C15.6509 19.7231 14.3904 20.764 13.0233 21.6493L13.0332 21.642L12.9851 21.6828C12.4385 22.0755 11.7143 22.1035 11.1424 21.7669L11.0133 21.6828L10.953 21.6354L10.5395 21.3571C8.82237 20.1733 7.29307 18.7372 6.00619 17.1009L5.68954 16.6877C4.34133 14.9207 3.57588 12.7761 3.49927 10.5263L3.50389 10.2414C3.65436 5.6514 7.41903 1.98444 12.028 2.00005ZM12.023 3.51751L11.7827 3.52076C8.03458 3.63503 5.02485 6.71226 5.01201 10.4999L5.0311 10.8569C5.16102 12.6375 5.80645 14.3442 6.89563 15.7717C8.24784 17.5831 9.90723 19.1416 11.7979 20.376L11.8802 20.4381C11.9485 20.4975 12.0498 20.4975 12.1182 20.4381L12.2028 20.3745C13.472 19.5526 14.6422 18.5863 15.6858 17.4991C17.7327 15.3325 18.9426 12.9515 18.9864 10.6407L18.9832 10.3092C18.8692 6.54947 15.8014 3.53043 12.023 3.51751ZM11.9992 7.40129C13.7876 7.40129 15.2374 8.85554 15.2374 10.6495C15.2374 12.4434 13.7876 13.8976 11.9992 13.8976C10.2108 13.8976 8.76102 12.4434 8.76102 10.6495C8.76102 8.85554 10.2108 7.40129 11.9992 7.40129ZM11.9992 8.91871C11.0463 8.91871 10.2738 9.6936 10.2738 10.6495C10.2738 11.6053 11.0463 12.3802 11.9992 12.3802C12.9521 12.3802 13.7246 11.6053 13.7246 10.6495C13.7246 9.6936 12.9521 8.91871 11.9992 8.91871Z" fill="#6D7D93"/>
</g>
</g>
<defs>
<clipPath id="clip0_4_1807">
<rect width="24" height="24" fill="white"/>
</clipPath>
<clipPath id="clip1_4_1807">
<rect width="24" height="24" fill="white"/>
</clipPath>
</defs>
</svg>
