<svg width="143" height="32" viewBox="0 0 143 32" fill="none" xmlns="http://www.w3.org/2000/svg">
<path fill-rule="evenodd" clip-rule="evenodd" d="M-0.309692 15.8333C-0.309692 15.3137 -0.20735 14.7992 -0.0085094 14.3192C0.190332 13.8391 0.481778 13.4029 0.849188 13.0355C1.2166 12.6681 1.65278 12.3767 2.13283 12.1778C2.61287 11.979 3.12738 11.8767 3.64698 11.8767C4.16657 11.8767 4.68108 11.979 5.16113 12.1778C5.64117 12.3767 6.07735 12.6681 6.44476 13.0355C6.81217 13.4029 7.10362 13.8391 7.30246 14.3192C7.5013 14.7992 7.60364 15.3137 7.60364 15.8333C7.60364 16.8827 7.18678 17.8891 6.44476 18.6311C5.70274 19.3731 4.69635 19.79 3.64698 19.79C2.5976 19.79 1.59121 19.3731 0.849188 18.6311C0.10717 17.8891 -0.309692 16.8827 -0.309692 15.8333ZM27.477 19.7933C26.4272 19.7933 25.4203 19.3763 24.678 18.634C23.9357 17.8916 23.5186 16.8848 23.5186 15.835C23.5186 14.7852 23.9357 13.7784 24.678 13.036C25.4203 12.2937 26.4272 11.8767 27.477 11.8767C28.5263 11.8767 29.5327 12.2935 30.2748 13.0355C31.0168 13.7776 31.4336 14.7839 31.4336 15.8333C31.4336 16.8827 31.0168 17.8891 30.2748 18.6311C29.5327 19.3731 28.5263 19.79 27.477 19.79V19.7933ZM27.477 0C25.3983 0.000438 23.3401 0.41035 21.4199 1.20632C19.4996 2.0023 17.755 3.16875 16.2856 4.63906C14.8162 6.10936 13.6509 7.85472 12.8561 9.77545C12.0614 11.6962 11.6528 13.7547 11.6536 15.8333C11.6528 17.912 12.0614 19.9705 12.8561 21.8912C13.6509 23.8119 14.8162 25.5573 16.2856 27.0276C17.755 28.4979 19.4996 29.6644 21.4199 30.4603C23.3401 31.2563 25.3983 31.6662 27.477 31.6667C29.5554 31.6658 31.6132 31.2555 33.5331 30.4594C35.4529 29.6632 37.1971 28.4967 38.6662 27.0264C40.1352 25.5562 41.3002 23.8109 42.0948 21.8904C42.8893 19.9699 43.2979 17.9117 43.297 15.8333C43.2979 13.7549 42.8893 11.6967 42.0948 9.77622C41.3002 7.8557 40.1352 6.11049 38.6662 4.64023C37.1971 3.16997 35.4529 2.00345 33.5331 1.20728C31.6132 0.411111 29.5554 0.000875 27.477 0ZM140.557 14.6067C140.807 14.6067 140.957 14.4967 140.957 14.2933C140.957 14.1067 140.857 13.9867 140.577 13.9867H140.317V14.6067H140.56H140.557ZM139.937 13.6733H140.64C141.03 13.6733 141.363 13.83 141.363 14.2733C141.363 14.4967 141.223 14.71 141.02 14.7833L141.447 15.55H141.023L140.7 14.9033H140.32V15.5533H139.94V13.6733H139.937ZM141.983 14.6367C141.983 13.7667 141.383 13.1433 140.603 13.1433C139.827 13.1433 139.237 13.7667 139.237 14.6367C139.237 15.5167 139.827 16.1167 140.603 16.1167C141.38 16.1167 141.983 15.5167 141.983 14.6367ZM138.863 14.6367C138.863 13.5533 139.65 12.81 140.603 12.81C141.567 12.81 142.353 13.5533 142.353 14.6367C142.353 15.72 141.567 16.46 140.603 16.46C139.65 16.46 138.863 15.72 138.863 14.6367ZM127.257 22.0433C127.49 22.0433 127.69 21.8433 127.69 21.61V20.0233C127.69 19.79 127.49 19.59 127.257 19.59H127.19C126.997 19.59 126.8 19.4 126.8 19.2067V9.78666C126.8 9.57333 126.587 9.35666 126.373 9.35666H124.79C124.573 9.35666 124.36 9.57333 124.36 9.79V20.22L124.367 20.4933C124.394 20.896 124.567 21.275 124.852 21.56C125.138 21.8451 125.517 22.0168 125.92 22.0433H127.253H127.257ZM57.6436 11.8433C59.797 11.8433 61.6103 13.67 61.6103 15.8333C61.6103 16.8831 61.1933 17.89 60.4509 18.6323C59.7086 19.3746 58.7018 19.7917 57.652 19.7917C56.6022 19.7917 55.5953 19.3746 54.853 18.6323C54.1107 17.89 53.6936 16.8831 53.6936 15.8333C53.6936 13.6333 55.467 11.8467 57.6436 11.8467V11.8433ZM57.6436 9.33333C55.9265 9.34127 54.2826 10.0301 53.0727 11.2487C51.8629 12.4673 51.1859 14.1161 51.1903 15.8333C51.1903 19.4567 54.0236 22.3 57.647 22.3C58.4995 22.3102 59.3455 22.1501 60.1353 21.8288C60.925 21.5076 61.6426 21.0318 62.246 20.4294C62.8493 19.827 63.3262 19.1101 63.6487 18.3209C63.9711 17.5316 64.1326 16.6859 64.1236 15.8333C64.1236 12.25 61.217 9.33333 57.647 9.33333H57.6436ZM109.173 19.4667C109.057 19.8 108.353 20.4233 107.553 20.4233C106.713 20.4233 106.243 19.9167 106.243 19.1567C106.243 18.3533 106.81 17.8633 107.843 17.8633C108.567 17.8633 109.173 18.1367 109.173 18.1367V19.47V19.4667ZM108.12 12.8033C106.653 12.8033 105.227 13.1733 105.033 13.2533C104.837 13.31 104.663 13.4667 104.74 13.8L104.937 14.8167C104.973 15.09 105.15 15.3033 105.443 15.2067C105.97 15.05 107.16 14.8733 107.983 14.8733C108.94 14.8733 109.27 15.4233 109.23 16.5733C109.23 16.5733 108.41 16.32 107.493 16.32C105.21 16.32 103.9 17.5533 103.9 19.1533C103.9 21.0867 105.15 22.2433 106.947 22.2433C108.353 22.2433 109.25 21.6167 109.78 21.11V21.5933C109.78 21.8267 109.973 22.0267 110.207 22.0267H111.087C111.32 22.0267 111.517 21.8333 111.517 21.5967V16.7333C111.517 14.2733 110.93 12.8067 108.117 12.8067L108.12 12.8033ZM91.7236 12.8033C89.997 12.8033 89.157 13.7333 88.8236 14.1033V13.4333C88.8236 13.2 88.6236 13 88.3903 13H87.3703C87.256 13.0009 87.1466 13.0469 87.0661 13.1281C86.9855 13.2093 86.9403 13.319 86.9403 13.4333V21.6C86.9403 21.8333 87.1536 22.0333 87.3703 22.0333H88.8136C89.247 22.0333 89.3803 21.9333 89.3803 21.6V16.4367C89.5071 16.0207 89.7668 15.6579 90.1197 15.4038C90.4725 15.1497 90.899 15.0184 91.3336 15.03C92.427 15.03 92.897 15.7533 92.897 16.9267V21.5967C92.897 21.83 93.0903 22.03 93.327 22.03H94.907C95.1236 22.03 95.3403 21.83 95.3403 21.5967V16.9267C95.3403 14.7367 94.5936 12.8033 91.7236 12.8033ZM70.2236 20.0133C69.5644 20.0208 68.9159 19.8454 68.3503 19.5067V16.28C68.5158 15.8942 68.7949 15.5679 69.1503 15.3446C69.5058 15.1213 69.9209 15.0116 70.3403 15.03C71.747 15.03 72.4703 16.2633 72.4703 17.53C72.4703 18.8033 71.707 20.0133 70.2236 20.0133ZM70.6736 12.8033C68.817 12.8033 67.7903 14.07 67.727 14.15V13.43C67.727 13.1967 67.5336 12.9967 67.297 12.9967H66.337C66.1036 12.9967 65.907 13.1967 65.907 13.43V25.2667C65.907 25.4833 66.1036 25.7 66.3403 25.7H67.9203C68.1336 25.7 68.3503 25.4833 68.3503 25.2667V21.8667C69.047 22.1096 69.7791 22.2357 70.517 22.24C73.2136 22.24 74.9903 20.1667 74.9903 17.53C74.9903 14.7933 73.1336 12.8 70.6736 12.8V12.8033ZM135.073 16.38C135.033 15.5 134.33 14.8133 133.333 14.8133C132.24 14.8133 131.54 15.48 131.42 16.38H135.073ZM133.39 12.8C135.733 12.8 137.53 14.54 137.53 16.98C137.53 17.1167 137.51 17.43 137.49 17.5667C137.47 17.8 137.257 17.9767 137.06 17.9767H131.28C131.3 19.09 132.22 20.07 133.527 20.07C134.427 20.07 135.05 19.7367 135.46 19.4033C135.673 19.23 135.91 19.21 136.047 19.4033L136.807 20.42C136.963 20.5967 136.983 20.81 136.767 21.0067C135.987 21.6733 134.873 22.24 133.41 22.24C130.713 22.24 128.843 20.0867 128.843 17.5067C128.843 14.97 130.713 12.8 133.39 12.8ZM118.107 20.01C117.687 20.0284 117.272 19.9187 116.917 19.6954C116.561 19.4721 116.282 19.1458 116.117 18.76V15.5367C116.117 15.5367 116.857 15.0267 117.99 15.0267C119.473 15.0267 120.237 16.24 120.237 17.51C120.237 18.7767 119.513 20.01 118.107 20.01ZM118.32 12.8C117.423 12.8 116.527 13.0167 116.117 13.19V9.75666C116.117 9.54 115.917 9.32333 115.683 9.32333H114.103C113.89 9.32333 113.673 9.54 113.673 9.75666V21.5967C113.673 21.83 113.89 22.03 114.107 22.03H114.787C114.8 22.03 114.813 22.03 114.827 22.0233H115.01C115.243 22.0233 115.443 21.83 115.443 21.5933V20.9267L115.45 20.8933C115.45 20.8933 116.483 22.2433 118.457 22.2433C120.92 22.2433 122.697 20.0933 122.697 17.51C122.697 14.8767 120.997 12.8033 118.32 12.8033V12.8ZM104.507 9.32333H95.3236C95.1103 9.32333 94.9536 9.49666 94.9536 9.69V11.2967C94.9536 11.49 95.1103 11.6667 95.3236 11.6667H98.637V21.6533C98.637 21.8467 98.8137 22.0233 99.007 22.0233H100.823C101.02 22.0233 101.197 21.8467 101.197 21.6533V11.6667H104.51C104.723 11.6667 104.877 11.49 104.877 11.2967V9.69333C104.877 9.49666 104.723 9.32333 104.51 9.32333H104.507ZM82.6403 16.3767C82.6003 15.4967 81.897 14.81 80.9036 14.81C79.8103 14.81 79.1036 15.4767 78.9903 16.3767H82.6403ZM80.9603 12.8C83.3036 12.8 85.1003 14.54 85.1003 16.98C85.1003 17.1167 85.0803 17.43 85.0603 17.5667C85.0403 17.8 84.827 17.9767 84.6336 17.9767H78.857C78.8736 19.09 79.7903 20.07 81.1003 20.07C82.0003 20.07 82.6236 19.7367 83.0336 19.4033C83.2503 19.23 83.4836 19.21 83.6203 19.4033L84.3803 20.42C84.537 20.5967 84.557 20.81 84.3436 21.0067C83.5603 21.6733 82.447 22.24 80.9836 22.24C78.2903 22.24 76.417 20.0867 76.417 17.5067C76.417 14.97 78.2903 12.8 80.9636 12.8H80.9603Z" fill="#6D7D93"/>
</svg>
