<svg width="97" height="28" viewBox="0 0 97 28" fill="none" xmlns="http://www.w3.org/2000/svg">
<path fill-rule="evenodd" clip-rule="evenodd" d="M64.597 9.58578C68.4122 9.58578 71.7547 12.525 71.7547 16.4993C71.7538 20.4179 68.6701 23.4138 65.0853 23.4138C63.4996 23.4138 62.3894 22.9511 61.3194 21.9022V28H58.1096V16.706C58.1096 12.4802 61.1649 9.58578 64.597 9.58578ZM63.0852 0.816466C63.8869 0.0173364 65.0911 -0.220052 66.1362 0.215021C67.1812 0.650094 67.8612 1.67192 67.859 2.80391C67.8553 3.03894 67.8224 3.27305 67.7593 3.50075L76.6051 10.3905C77.5707 9.6137 78.7245 9.10578 79.9495 8.91821V5.69279C79.0795 5.28618 78.5218 4.41445 78.5174 3.45412V3.38004C78.5174 2.0083 79.6294 0.89628 81.0012 0.89628H81.0752C82.4469 0.89628 83.559 2.0083 83.559 3.38004V3.45412C83.5546 4.41445 82.9969 5.28618 82.1269 5.69279V8.91821C85.0488 9.36171 87.3862 11.5765 87.9863 14.4703C88.5864 17.3642 87.3225 20.3258 84.8179 21.8946C82.3133 23.4635 79.097 23.3081 76.7552 21.5053L74.1342 24.1271C74.2028 24.3413 74.2392 24.5644 74.2421 24.7892C74.2411 26.058 73.2121 27.0858 71.9434 27.0855C70.6747 27.0852 69.6462 26.0567 69.6459 24.788C69.6455 23.5193 70.6734 22.4903 71.9422 22.4893C72.167 22.4923 72.3901 22.5287 72.6043 22.5972L75.2535 19.947C73.5871 17.5721 73.5443 14.4193 75.1457 12L66.4351 5.22183C66.0164 5.46521 65.5412 5.59449 65.057 5.59677C63.925 5.59529 62.9053 4.91196 62.4737 3.8655C62.042 2.81904 62.2834 1.61559 63.0852 0.816466ZM33.1266 5.17336V11.263C34.1984 10.2122 35.3067 9.75131 36.8943 9.75131C40.4791 9.75405 43.5619 12.7499 43.5619 16.6676C43.5619 20.6347 40.212 23.5812 36.4041 23.5812C32.9711 23.5812 29.9167 20.6859 29.9167 16.4609V5.17336H33.1266ZM19.101 9.65894V17.5839C19.101 19.1282 20.3528 20.38 21.8971 20.38C23.4413 20.38 24.6931 19.1282 24.6931 17.5839V9.65894H27.8865V17.5839C27.8865 20.8951 25.2023 23.5793 21.8911 23.5793C18.5799 23.5793 15.8957 20.8951 15.8957 17.5839V9.65894H19.101ZM93.376 6.44999V10.1637H96.3207V12.9786H93.376V18.5341C93.376 19.7888 93.9147 20.6082 95.8086 20.6082C96.168 20.6054 96.5786 20.5807 96.9361 20.556L96.1433 23.4751C95.7208 23.5501 95.291 23.5848 94.8612 23.5775C92.1232 23.5775 90.1259 22.1189 90.1259 19.2245V7.90861L93.376 6.44999ZM50.9024 5.06271C52.6427 5.06271 54.768 6.04213 55.816 7.45959L53.7173 9.93421C52.897 9.05812 51.6441 8.33567 50.6949 8.33567C49.5179 8.33567 48.4434 8.85053 48.4434 10.4756C48.4379 13.4907 56.0949 11.3297 56.0949 18.2835C56.0949 21.5062 53.4374 23.5675 50.1333 23.5675C47.9321 23.5675 46.094 22.6383 44.6034 20.8093L46.9335 18.3869C47.8041 19.3672 48.4187 20.2936 50.3144 20.2936C51.5161 20.2936 52.5659 19.3388 52.5659 18.2579C52.5659 14.7518 44.9098 16.7399 44.9098 10.4756C44.9098 7.09928 47.4246 5.06271 50.9024 5.06271ZM3.37816 5.06271V12.813H10.4984V5.06271H13.8774V23.5638H10.4974V16.065H3.37902V23.5638H0V5.06271H3.37816ZM36.8742 13.0645C35.5727 13.0645 34.3701 13.7588 33.7193 14.886C33.0686 16.0131 33.0686 17.4017 33.7193 18.5288C34.3701 19.6559 35.5727 20.3503 36.8742 20.3503C38.8861 20.3503 40.517 18.7193 40.517 16.7074C40.517 14.6955 38.8861 13.0645 36.8742 13.0645ZM65.0721 12.8162C63.0602 12.8162 61.4291 14.4472 61.4291 16.4591C61.4291 18.471 63.0602 20.102 65.0721 20.102C67.084 20.102 68.7149 18.471 68.7149 16.4591C68.7149 14.4472 67.084 12.8162 65.0721 12.8162ZM81.0405 12.2771C79.7217 12.2409 78.4874 12.9236 77.8173 14.06C77.1473 15.1964 77.1473 16.607 77.8173 17.7434C78.4874 18.8798 79.7217 19.5626 81.0405 19.5263C82.9953 19.4542 84.5405 17.8515 84.5395 15.899C84.5385 13.9466 82.9917 12.3455 81.0405 12.2771Z" fill="#6D7D93"/>
</svg>
