<svg width="95" height="24" viewBox="0 0 95 24" fill="none" xmlns="http://www.w3.org/2000/svg">
<path fill-rule="evenodd" clip-rule="evenodd" d="M30.1429 18.8014L31.3174 16.0764C32.5854 17.0194 34.2696 17.5143 35.939 17.5143C37.1645 17.5143 37.9418 17.0428 37.9418 16.3207C37.9227 14.3136 30.5783 15.8832 30.521 10.8517C30.5019 8.29233 32.7744 6.3256 35.99 6.3256C37.9036 6.3256 39.8194 6.79711 41.1765 7.87605L40.0827 10.6584C38.8339 9.86189 37.2813 9.29056 35.801 9.29056C34.8027 9.29056 34.138 9.76844 34.138 10.3759C34.1571 12.3426 41.5588 11.2679 41.6353 16.0764C41.6353 18.6888 39.418 20.5217 36.2406 20.5217C33.9107 20.5217 31.7698 19.9759 30.145 18.8014H30.1429ZM75.1907 15.0909C74.8224 15.7418 74.2491 16.2523 73.5601 16.543C72.8711 16.8336 72.1053 16.888 71.3822 16.6976C70.659 16.5072 70.0193 16.0827 69.5628 15.4905C69.1063 14.8982 68.8587 14.1715 68.8587 13.4237C68.8587 12.6759 69.1063 11.9492 69.5628 11.3569C70.0193 10.7647 70.659 10.3402 71.3822 10.1498C72.1053 9.95935 72.8711 10.0137 73.5601 10.3044C74.2491 10.595 74.8224 11.1056 75.1907 11.7564L78.4296 9.95534C77.6624 8.58216 76.4613 7.50232 75.0145 6.88505C73.5677 6.26777 71.957 6.14795 70.4348 6.54434C68.9126 6.94074 67.565 7.83097 66.603 9.0755C65.641 10.3201 65.1192 11.8486 65.1192 13.4216C65.1192 14.9945 65.641 16.5231 66.603 17.7676C67.565 19.0121 68.9126 19.9024 70.4348 20.2988C71.957 20.6951 73.5677 20.5753 75.0145 19.958C76.4613 19.3408 77.6624 18.2609 78.4296 16.8878L75.1907 15.0909ZM43.2601 0.431796H47.3167V20.2584H43.2601V0.431796ZM80.0183 0.431796V20.2584H84.0749V14.3178L88.8834 20.2584H94.07L87.9532 13.1964L93.6134 6.60808H88.6519L84.0686 12.0771V0.431796H80.0183ZM59.3571 15.1292C59.0133 15.6513 58.544 16.0788 57.9923 16.3727C57.4406 16.6666 56.8239 16.8174 56.1988 16.8113C55.3004 16.8113 54.4387 16.4544 53.8034 15.8191C53.1681 15.1838 52.8112 14.3221 52.8112 13.4237C52.8112 12.5252 53.1681 11.6636 53.8034 11.0283C54.4387 10.393 55.3004 10.0361 56.1988 10.0361C57.5624 10.0361 58.773 10.7901 59.3571 11.7777V15.1292ZM59.3571 6.60808V8.21587C58.6987 7.0987 57.0484 6.32136 55.3259 6.32136C51.7663 6.32136 48.9606 9.46472 48.9606 13.4024C48.9606 17.3444 51.7663 20.5217 55.3259 20.5217C57.0463 20.5217 58.6987 19.7486 59.3571 18.6315V20.235H63.4137V6.60808H59.3571ZM5.08737 15.1101C5.08737 15.6046 4.94071 16.088 4.66593 16.4991C4.39115 16.9102 4.00061 17.2307 3.5437 17.4198C3.08679 17.6089 2.58405 17.6583 2.09908 17.5617C1.6141 17.4651 1.16868 17.2268 0.819156 16.8769C0.469633 16.5271 0.231716 16.0815 0.1355 15.5964C0.039283 15.1114 0.089091 14.6087 0.278623 14.1519C0.468154 13.6952 0.788896 13.3049 1.20027 13.0305C1.61164 12.7561 2.09517 12.6098 2.58968 12.6102H5.08737V15.1101ZM6.33835 15.1101C6.3286 14.7758 6.38602 14.443 6.50721 14.1313C6.6284 13.8196 6.8109 13.5354 7.04389 13.2955C7.27689 13.0556 7.55565 12.8649 7.86366 12.7347C8.17168 12.6045 8.5027 12.5374 8.83711 12.5374C9.17152 12.5374 9.50254 12.6045 9.81054 12.7347C10.1185 12.8649 10.3973 13.0556 10.6303 13.2955C10.8633 13.5354 11.0458 13.8196 11.167 14.1313C11.2882 14.443 11.3456 14.7758 11.3358 15.1101V21.3564C11.3169 22.0065 11.0453 22.6237 10.5788 23.0768C10.1122 23.5299 9.48749 23.7834 8.83711 23.7834C8.18673 23.7834 7.56196 23.5299 7.09542 23.0768C6.62888 22.6237 6.3573 22.0065 6.33835 21.3564V15.1101ZM8.83817 5.07038C8.34375 5.06996 7.86056 4.92294 7.4497 4.64791C7.03884 4.37287 6.71877 3.98218 6.52995 3.52524C6.34113 3.0683 6.29205 2.56562 6.38892 2.08079C6.48579 1.59595 6.72425 1.15073 7.07416 0.801414C7.42406 0.452105 7.86969 0.214399 8.35469 0.118354C8.83969 0.0223104 9.34228 0.0722421 9.79894 0.261836C10.2555 0.451429 10.6456 0.772169 10.92 1.1835C11.1943 1.59483 11.3405 2.07827 11.3401 2.57268V5.07038H8.8403H8.83817ZM8.83817 6.34472C9.17244 6.33497 9.50527 6.39239 9.81694 6.51358C10.1286 6.63477 10.4128 6.81727 10.6527 7.05026C10.8926 7.28326 11.0833 7.56202 11.2135 7.87004C11.3437 8.17805 11.4108 8.50907 11.4108 8.84348C11.4108 9.17789 11.3437 9.50891 11.2135 9.81693C11.0833 10.125 10.8926 10.4037 10.6527 10.6367C10.4128 10.8697 10.1286 11.0522 9.81694 11.1734C9.50527 11.2946 9.17244 11.352 8.83817 11.3423H2.57268C2.23841 11.352 1.90558 11.2946 1.5939 11.1734C1.28222 11.0522 0.998016 10.8697 0.758126 10.6367C0.518246 10.4037 0.327543 10.125 0.19732 9.81693C0.067098 9.50891 0 9.17789 0 8.84348C0 8.50907 0.067098 8.17805 0.19732 7.87004C0.327543 7.56202 0.518246 7.28326 0.758126 7.05026C0.998016 6.81727 1.28222 6.63477 1.5939 6.51358C1.90558 6.39239 2.23841 6.33497 2.57268 6.34472H8.83817ZM18.8544 8.84242C18.8544 8.34791 19.0011 7.86451 19.2759 7.45337C19.5506 7.04223 19.9412 6.72182 20.3981 6.53268C20.855 6.34354 21.3577 6.29416 21.8427 6.39079C22.3277 6.48741 22.7731 6.72571 23.1226 7.07553C23.4722 7.42535 23.7101 7.87097 23.8063 8.35603C23.9025 8.84109 23.8527 9.34379 23.6632 9.80053C23.4736 10.2573 23.1529 10.6476 22.7415 10.922C22.3301 11.1964 21.8466 11.3427 21.3521 11.3423H18.8565V8.84242H18.8544ZM17.6034 8.84242C17.6132 9.17669 17.5558 9.50952 17.4346 9.8212C17.3134 10.1329 17.1309 10.4171 16.8979 10.657C16.6649 10.8969 16.3861 11.0876 16.0781 11.2178C15.7701 11.348 15.4391 11.4151 15.1047 11.4151C14.7703 11.4151 14.4393 11.348 14.1312 11.2178C13.8232 11.0876 13.5445 10.8969 13.3115 10.657C13.0785 10.4171 12.896 10.1329 12.7748 9.8212C12.6536 9.50952 12.5962 9.17669 12.6059 8.84242V2.57268C12.5962 2.23841 12.6536 1.90558 12.7748 1.5939C12.896 1.28222 13.0785 0.998016 13.3115 0.758131C13.5445 0.518243 13.8232 0.327543 14.1312 0.19732C14.4393 0.0670981 14.7703 0 15.1047 0C15.4391 0 15.7701 0.0670981 16.0781 0.19732C16.3861 0.327543 16.6649 0.518243 16.8979 0.758131C17.1309 0.998016 17.3134 1.28222 17.4346 1.5939C17.5558 1.90558 17.6132 2.23841 17.6034 2.57268V8.84242ZM15.1079 18.8587C15.6024 18.8587 16.0858 19.0054 16.4969 19.2802C16.9081 19.555 17.2285 19.9455 17.4176 20.4024C17.6067 20.8593 17.6561 21.3621 17.5595 21.847C17.4629 22.332 17.2246 22.7774 16.8748 23.1269C16.5249 23.4765 16.0793 23.7144 15.5943 23.8106C15.1092 23.9068 14.6065 23.857 14.1498 23.6675C13.693 23.4779 13.3027 23.1572 13.0283 22.7458C12.7539 22.3345 12.6076 21.8509 12.608 21.3564V18.8587H15.1079ZM15.1079 17.6078C14.7736 17.6175 14.4408 17.5601 14.1291 17.4389C13.8174 17.3177 13.5332 17.1352 13.2933 16.9022C13.0534 16.6692 12.8627 16.3905 12.7325 16.0824C12.6023 15.7744 12.5352 15.4434 12.5352 15.109C12.5352 14.7746 12.6023 14.4436 12.7325 14.1356C12.8627 13.8275 13.0534 13.5488 13.2933 13.3158C13.5332 13.0828 13.8174 12.9003 14.1291 12.7791C14.4408 12.6579 14.7736 12.6005 15.1079 12.6102H21.3776C22.0277 12.6292 22.6448 12.9008 23.098 13.3673C23.5511 13.8338 23.8046 14.4586 23.8046 15.109C23.8046 15.7594 23.5511 16.3841 23.098 16.8507C22.6448 17.3172 22.0277 17.5888 21.3776 17.6078H15.1079Z" fill="#6D7D93"/>
</svg>
