<svg width="143" height="28" viewBox="0 0 143 28" fill="none" xmlns="http://www.w3.org/2000/svg">
<path d="M16.4957 5.26155L8.24784 10.5231L16.4957 15.7847L8.24784 21.0462L0 15.7562L8.24784 10.4947L0 5.26155L8.24784 0L16.4957 5.26155ZM8.20518 22.7384L16.453 17.4769L24.7009 22.7384L16.453 28L8.20518 22.7384ZM16.4957 15.7562L24.7435 10.4947L16.4957 5.26155L24.7009 0L32.9487 5.26155L24.7009 10.5231L32.9487 15.7847L24.7009 21.0462L16.4957 15.7562Z" fill="#6D7D93"/>
<path d="M39.2899 5.57622H45.9593C50.2112 5.57622 53.7236 8.03635 53.7236 13.6534V14.8337C53.7236 20.4934 50.4387 23.0389 46.0873 23.0389H39.2899V5.57622ZM43.0157 8.74737V19.8535H45.874C48.2914 19.8535 49.9126 18.275 49.9126 14.7626V13.8382C49.9126 10.3258 48.2061 8.74737 45.746 8.74737H43.0157ZM55.7003 8.91802H58.6866L59.1701 12.2029C59.7389 9.97033 61.1894 8.77582 63.8201 8.77582H64.7445V12.5442H63.2086C60.1797 12.5442 59.4402 13.5965 59.4402 16.5828V23.0815H55.7572V8.91802H55.7003ZM65.4839 16.2842V15.886C65.4839 11.1506 68.5129 8.56251 72.6368 8.56251C76.846 8.56251 79.7897 11.1506 79.7897 15.886V16.2842C79.7897 20.9342 76.9314 23.437 72.6368 23.437C68.072 23.3944 65.4839 20.9485 65.4839 16.2842ZM76.0212 16.2415V15.886C76.0212 13.2552 74.6987 11.6767 72.5941 11.6767C70.5322 11.6767 69.167 13.1272 69.167 15.886V16.2415C69.167 18.7869 70.4895 20.2374 72.5941 20.2374C74.6987 20.1948 76.0212 18.7869 76.0212 16.2415ZM81.7236 8.91802H84.7952L85.1508 11.5914C85.8902 9.79969 87.4687 8.56251 89.8008 8.56251C93.3986 8.56251 95.7734 11.1506 95.7734 15.9429V16.341C95.7734 20.9911 93.1426 23.4512 89.8008 23.4512C87.5682 23.4512 86.0324 22.4416 85.2787 20.8205V27.9733H81.681L81.7236 8.91802ZM92.0334 16.2415V15.9286C92.0334 13.113 90.5829 11.7194 88.649 11.7194C86.587 11.7194 85.2219 13.2979 85.2219 15.9286V16.1988C85.2219 18.7016 86.5444 20.2801 88.6063 20.2801C90.7252 20.2374 92.0334 18.8865 92.0334 16.2415ZM101.22 20.465L100.907 23.0531H97.75V4.18262H101.348V11.4208C102.145 9.57216 103.723 8.56251 105.956 8.56251C109.34 8.60517 111.843 10.9373 111.843 15.63V16.0709C111.843 20.7636 109.468 23.4512 105.87 23.4512C103.495 23.3944 101.96 22.2994 101.22 20.465ZM108.06 16.0709V15.7153C108.06 13.1272 106.652 11.6767 104.676 11.6767C102.656 11.6767 101.249 13.2979 101.249 15.758V16.0709C101.249 18.7016 102.614 20.2374 104.633 20.2374C106.795 20.2374 108.06 18.8865 108.06 16.0709ZM113.421 16.2842V15.886C113.421 11.1506 116.45 8.56251 120.574 8.56251C124.783 8.56251 127.727 11.1506 127.727 15.886V16.2842C127.727 20.9342 124.826 23.437 120.574 23.437C116.009 23.3944 113.421 20.9485 113.421 16.2842ZM123.987 16.2415V15.886C123.987 13.2552 122.665 11.6767 120.56 11.6767C118.498 11.6767 117.133 13.1272 117.133 15.886V16.2415C117.133 18.7869 118.455 20.2374 120.56 20.2374C122.679 20.1948 123.987 18.7869 123.987 16.2415ZM132.548 15.7153L127.585 8.91802H131.837L134.695 13.1699L137.596 8.91802H141.805L136.771 15.6727L142.075 23.0531H137.909L134.667 18.3603L131.51 23.0531H127.158L132.548 15.7153Z" fill="#6D7D93"/>
</svg>
