<svg width="44" height="44" viewBox="0 0 44 44" fill="none" xmlns="http://www.w3.org/2000/svg">
<g clip-path="url(#clip0_4_2163)">
<g clip-path="url(#clip1_4_2163)">
<path d="M29.8447 21.0945C30.0867 21.0651 30.3158 21.0615 30.5285 21.0945C30.6495 20.8121 30.6715 20.3263 30.5633 19.7965C30.3983 19.01 30.1765 18.5351 29.7182 18.6121C29.258 18.6855 29.2397 19.2538 29.4065 20.0403C29.4982 20.4803 29.6632 20.858 29.8447 21.0945ZM25.9048 21.716C26.2348 21.859 26.4365 21.9525 26.5117 21.8736C26.5648 21.8223 26.5501 21.7196 26.4713 21.5913C26.2591 21.2873 25.9637 21.0512 25.6207 20.9111C25.254 20.7585 24.8542 20.7029 24.4599 20.7498C24.0655 20.7966 23.6899 20.9444 23.3693 21.1788C23.1512 21.3401 22.944 21.562 22.9697 21.6976C22.9825 21.7398 23.0118 21.7746 23.0888 21.7893C23.2703 21.8095 23.9028 21.4886 24.6343 21.4446C25.1513 21.408 25.5748 21.5693 25.9048 21.716ZM25.243 22.0918C24.8177 22.1596 24.5812 22.299 24.4308 22.4346C24.3006 22.5483 24.2237 22.6693 24.2237 22.7591L24.2566 22.8361L24.3245 22.8618C24.4216 22.8618 24.638 22.7775 24.638 22.7775C25.232 22.5666 25.6262 22.5905 26.0167 22.6345C26.2312 22.6601 26.332 22.6711 26.3797 22.5978C26.3925 22.5758 26.4127 22.5336 26.3668 22.4621C26.2642 22.2953 25.8333 22.0221 25.243 22.0918ZM28.5136 23.4778C28.8051 23.6208 29.1242 23.5621 29.2287 23.3513C29.3368 23.1405 29.1847 22.8526 28.8932 22.7115C28.6035 22.5666 28.2826 22.6216 28.1782 22.8325C28.0737 23.0433 28.2258 23.3348 28.5136 23.4778ZM30.38 21.8443C30.1453 21.8406 29.951 22.0973 29.9436 22.4236C29.9382 22.7481 30.127 23.0121 30.3635 23.014C30.6 23.0176 30.7943 22.7591 30.7998 22.4365C30.8053 22.1138 30.6183 21.8498 30.38 21.8443ZM14.5327 27.6798C14.474 27.6065 14.3768 27.6266 14.2833 27.6523C14.2173 27.6651 14.144 27.6835 14.0652 27.6816C13.9862 27.6832 13.908 27.6655 13.8373 27.6301C13.7668 27.5946 13.7058 27.5424 13.66 27.4781C13.5518 27.3131 13.5573 27.0656 13.6783 26.7851L13.7333 26.6586C13.924 26.2351 14.2375 25.5238 13.8837 24.8473C13.7679 24.6085 13.5952 24.4019 13.3806 24.2459C13.1661 24.0898 12.9163 23.9891 12.6535 23.9526C12.405 23.9209 12.1525 23.9487 11.9169 24.0338C11.6814 24.1189 11.4694 24.2589 11.2986 24.4421C10.778 25.016 10.6991 25.8006 10.7981 26.0793C10.8366 26.182 10.8953 26.2095 10.9356 26.215C11.0236 26.2278 11.1538 26.1618 11.2363 25.94L11.262 25.8703C11.2986 25.753 11.3665 25.533 11.4783 25.3606C11.6162 25.1498 11.8321 25.0024 12.0786 24.9508C12.3251 24.8994 12.582 24.9478 12.7928 25.0856C13.1595 25.3258 13.297 25.7731 13.1412 26.2003C13.0605 26.4221 12.9303 26.8438 12.9578 27.1903C13.0165 27.8925 13.4528 28.1748 13.8378 28.2096C14.2155 28.2225 14.4795 28.0116 14.5473 27.8558C14.5858 27.7586 14.5528 27.7018 14.5327 27.6798Z" fill="black"/>
<path d="M36.3382 26.3943C36.3217 26.3412 36.2264 25.9983 36.0999 25.5877L35.8359 24.8837C36.351 24.1082 36.3602 23.4188 36.2924 23.0265C36.215 22.5218 35.9756 22.0559 35.6104 21.6992C35.2034 21.2738 34.3692 20.8338 33.1995 20.5057L32.5854 20.3352C32.5817 20.3077 32.5524 18.8868 32.5285 18.2763C32.5084 17.8363 32.4717 17.147 32.2572 16.4687C32.0005 15.5483 31.5587 14.749 31.0032 14.2302C32.534 12.6462 33.4874 10.899 33.4855 9.40121C33.48 6.52104 29.9417 5.64471 25.5802 7.45237L24.658 7.84471C24.6544 7.84104 22.9879 6.20571 22.964 6.18554C17.9884 1.84787 2.44533 19.1288 7.41733 23.3253L8.50449 24.2438C8.21081 25.0305 8.10655 25.8753 8.20016 26.7097C8.31933 27.8665 8.91333 28.972 9.87766 29.8282C10.7943 30.6385 12.0025 31.1555 13.1704 31.1537C15.1045 35.6123 19.5229 38.344 24.7039 38.4998C30.2625 38.6648 34.9265 36.056 36.8845 31.37C37.011 31.0418 37.5537 29.5605 37.5537 28.2533C37.5519 26.937 36.8094 26.3925 36.3382 26.3943ZM13.5957 29.8997C13.4263 29.93 13.2543 29.9428 13.0824 29.9382C11.403 29.8905 9.58983 28.3798 9.41016 26.5887C9.21033 24.6087 10.2223 23.0833 12.0153 22.724C12.228 22.6782 12.4884 22.6543 12.767 22.6672C13.7717 22.7258 15.2494 23.4958 15.5885 25.683C15.8892 27.6172 15.4125 29.5917 13.5957 29.8997ZM11.7238 21.536C10.6338 21.7375 9.66518 22.3556 9.02333 23.2593C8.66216 22.9587 7.99299 22.3793 7.87566 22.152C6.91499 20.3297 8.92249 16.784 10.3268 14.782C13.79 9.83571 19.2204 6.09387 21.7357 6.76854C22.1427 6.88587 23.4957 8.45704 23.4957 8.45704C23.4957 8.45704 20.984 9.84854 18.652 11.7919C15.5152 14.2118 13.141 17.7245 11.7238 21.536ZM29.344 29.159C29.3629 29.1511 29.3786 29.137 29.3887 29.119C29.3986 29.1011 29.4022 29.0803 29.399 29.06C29.3978 29.0478 29.3943 29.0359 29.3884 29.0251C29.3827 29.0143 29.3747 29.0048 29.3652 28.9971C29.3555 28.9894 29.3445 28.9836 29.3327 28.9803C29.3209 28.9769 29.3085 28.976 29.2964 28.9775C29.2964 28.9775 26.6674 29.3662 24.1832 28.4587C24.4527 27.5805 25.175 27.894 26.2622 27.9838C27.9521 28.0836 29.6468 27.9002 31.2764 27.4412C32.4002 27.1167 33.8779 26.4805 35.0255 25.5748C35.4142 26.4273 35.5499 27.3623 35.5499 27.3623C35.5499 27.3623 35.8487 27.3092 36.0999 27.4632C36.3382 27.6098 36.5105 27.9123 36.3932 28.6933C36.1494 30.1563 35.5297 31.3425 34.4829 32.4352C33.8314 33.1421 33.0552 33.7225 32.193 34.1475C31.7139 34.3999 31.2148 34.6121 30.7007 34.7818C26.7609 36.067 22.7275 34.6535 21.4277 31.6157C21.3228 31.3831 21.2358 31.1428 21.1674 30.897C20.6137 28.895 21.083 26.497 22.5515 24.9827V24.9808C22.645 24.8855 22.7385 24.7737 22.7385 24.6307C22.7385 24.5133 22.6615 24.3868 22.5974 24.2952C22.084 23.5508 20.3002 22.2803 20.6595 19.8218C20.9144 18.0545 22.4599 16.8115 23.9009 16.8848L24.2675 16.9068C24.8909 16.9435 25.4354 17.0223 25.9487 17.0462C26.8104 17.081 27.5822 16.9563 28.4989 16.1937C28.8087 15.9333 29.0562 15.7115 29.4742 15.6418C29.5182 15.6308 29.6282 15.596 29.8464 15.6033C30.07 15.6124 30.2872 15.6814 30.4752 15.8032C31.2085 16.2908 31.313 17.4752 31.3534 18.3423C31.3754 18.8355 31.4359 20.0327 31.4542 20.3737C31.5019 21.1583 31.709 21.2702 32.1234 21.4058C32.3599 21.4865 32.578 21.5415 32.8989 21.635C33.8687 21.9045 34.448 22.185 34.811 22.5388C34.9991 22.7211 35.1205 22.9614 35.1557 23.2208C35.2749 24.0587 34.5085 25.0927 32.4882 26.0313C30.2772 27.0562 27.595 27.3165 25.7434 27.1093L25.0944 27.036C23.6094 26.838 22.7679 28.752 23.657 30.0628C24.2309 30.908 25.791 31.458 27.3549 31.458C30.9354 31.4617 33.689 29.9327 34.7157 28.609L34.7964 28.4935C34.844 28.4165 34.8055 28.378 34.7414 28.4183C33.9072 28.9903 30.1892 31.2637 26.2145 30.5817C26.2145 30.5817 25.7305 30.501 25.2905 30.3287C24.9422 30.1967 24.207 29.8557 24.119 29.104C27.3219 30.0995 29.344 29.159 29.344 29.159ZM18.124 14.7637C19.356 13.341 20.8722 12.1017 22.2325 11.4087C22.2784 11.383 22.3279 11.4362 22.3022 11.4784C22.1353 11.771 22.0072 12.0841 21.9209 12.4097C21.9099 12.4592 21.963 12.4995 22.0052 12.4683C22.8522 11.8927 24.3225 11.2749 25.6132 11.1979C25.6257 11.1957 25.6386 11.198 25.6498 11.2043C25.6608 11.2106 25.6693 11.2205 25.6738 11.2325C25.6785 11.2444 25.6787 11.2575 25.6747 11.2696C25.6705 11.2816 25.6625 11.2919 25.6517 11.2987C25.4378 11.4628 25.2467 11.6545 25.0834 11.8689C25.0577 11.9055 25.0815 11.9587 25.1274 11.9587C26.033 11.9642 27.3109 12.2795 28.1414 12.747C28.1964 12.78 28.156 12.8882 28.0955 12.8735C26.8342 12.5857 24.7754 12.3657 22.634 12.8882C20.72 13.3538 19.2607 14.0725 18.1992 14.848C18.1442 14.8847 18.08 14.8132 18.124 14.7637Z" fill="black"/>
</g>
</g>
<defs>
<clipPath id="clip0_4_2163">
<rect width="44" height="44" fill="white"/>
</clipPath>
<clipPath id="clip1_4_2163">
<rect width="44" height="44" fill="white"/>
</clipPath>
</defs>
</svg>
