<svg width="32" height="32" viewBox="0 0 32 32" fill="none" xmlns="http://www.w3.org/2000/svg">
<g clip-path="url(#clip0_4_2000)">
<g clip-path="url(#clip1_4_2000)">
<g clip-path="url(#clip2_4_2000)">
<mask id="mask0_4_2000" style="mask-type:luminance" maskUnits="userSpaceOnUse" x="2" y="0" width="28" height="32">
<path d="M29.4116 0H2.28577V32H29.4116V0Z" fill="white"/>
</mask>
<g mask="url(#mask0_4_2000)">
<path d="M25.2966 2.49028C23.8201 0.807421 21.1512 0.0859375 17.7368 0.0859375H7.82739C7.48958 0.08595 7.16285 0.206472 6.90594 0.425834C6.64904 0.645196 6.47881 0.949009 6.42586 1.28265L2.29977 27.4514C2.21776 27.9674 2.61733 28.4346 3.14035 28.4346H9.25808L10.7945 18.6893L10.7468 18.9946C10.8563 18.3057 11.4454 17.7976 12.1431 17.7976H15.0502C20.7613 17.7976 25.233 15.4779 26.5393 8.76758C26.5782 8.56911 26.6118 8.37596 26.6408 8.18724C26.4759 8.09992 26.4759 8.09992 26.6408 8.18724C27.0297 5.70702 26.6381 4.01876 25.2966 2.49028Z" fill="#27346A"/>
<path d="M13.1354 7.29377C13.3026 7.21414 13.4856 7.17287 13.6708 7.17299H21.4395C22.3595 7.17299 23.2176 7.23285 24.0017 7.35905C24.2211 7.39404 24.4394 7.43581 24.6562 7.4843C24.9635 7.55211 25.2673 7.63511 25.5664 7.73299C25.9519 7.86173 26.3109 8.01166 26.6409 8.18724C27.0297 5.70607 26.6381 4.01876 25.2966 2.49028C23.8192 0.807421 21.1512 0.0859375 17.7368 0.0859375H7.82655C7.1288 0.0859375 6.53521 0.593911 6.42586 1.28265L2.29977 27.4504C2.21776 27.9673 2.61733 28.4339 3.1395 28.4339H9.25808L12.4457 8.21988C12.477 8.02118 12.5562 7.83309 12.6763 7.67176C12.7965 7.51045 12.954 7.38072 13.1354 7.29377Z" fill="#27346A"/>
<path d="M26.5401 8.76784C25.2338 15.4772 20.7622 17.7979 15.051 17.7979H12.143C11.4454 17.7979 10.8561 18.306 10.7477 18.9948L8.83632 31.1119C8.7649 31.5635 9.11414 31.9727 9.57104 31.9727H14.7281C15.0236 31.9726 15.3093 31.8671 15.5338 31.6753C15.7584 31.4834 15.9072 31.2177 15.9534 30.9258L16.0036 30.663L16.9756 24.5029L17.0382 24.1625C17.0844 23.8707 17.233 23.605 17.4576 23.4131C17.6822 23.2212 17.9679 23.1157 18.2633 23.1156H19.0351C24.0308 23.1156 27.9425 21.086 29.0856 15.2163C29.5628 12.7633 29.3159 10.7153 28.0537 9.27677C27.6709 8.84105 27.1954 8.48121 26.6416 8.1875C26.6116 8.37717 26.5791 8.56937 26.5401 8.76784Z" fill="#2790C3"/>
<path d="M25.2737 7.64215C25.0701 7.58267 24.8645 7.53002 24.6573 7.48427C24.4404 7.43657 24.2221 7.39508 24.0028 7.35987C23.2179 7.23282 22.3604 7.17285 21.4396 7.17285H13.6718C13.4864 7.17243 13.3033 7.21405 13.1364 7.2946C12.9548 7.38128 12.797 7.51091 12.6769 7.67228C12.5567 7.83365 12.4776 8.02188 12.4466 8.22069L10.7955 18.6893L10.7478 18.9945C10.8564 18.3057 11.4456 17.7976 12.1433 17.7976H15.0512C20.7623 17.7976 25.2341 15.4779 26.5404 8.76755C26.5792 8.56908 26.6118 8.37677 26.6419 8.18721C26.311 8.01258 25.9529 7.8617 25.5675 7.7338C25.4701 7.70155 25.3721 7.67099 25.2737 7.64215Z" fill="#1F264F"/>
</g>
</g>
</g>
</g>
<defs>
<clipPath id="clip0_4_2000">
<rect width="32" height="32" fill="white"/>
</clipPath>
<clipPath id="clip1_4_2000">
<rect width="32" height="32" fill="white"/>
</clipPath>
<clipPath id="clip2_4_2000">
<rect width="27.4286" height="32" fill="white" transform="translate(2.28577)"/>
</clipPath>
</defs>
</svg>
