<svg width="32" height="32" viewBox="0 0 32 32" fill="none" xmlns="http://www.w3.org/2000/svg">
<g clip-path="url(#clip0_4_1292)">
<g clip-path="url(#clip1_4_1292)">
<g clip-path="url(#clip2_4_1292)">
<path d="M6.54014 21.0027C6.54014 22.8567 5.04176 24.3552 3.18776 24.3552C1.33376 24.3552 -0.164612 22.8567 -0.164612 21.0027C-0.164612 19.1488 1.33376 17.6504 3.18789 17.6504H6.54002L6.54014 21.0027ZM8.21639 21.0027C8.21639 19.1488 9.71476 17.6504 11.5688 17.6504C13.4227 17.6504 14.9211 19.1488 14.9211 21.0028V29.3836C14.9211 31.2377 13.4227 32.7362 11.5687 32.7362C9.71488 32.7362 8.21639 31.2377 8.21639 29.3836V21.0027Z" fill="#E01E5A"/>
<path d="M11.5684 7.54264C9.71445 7.54264 8.21594 6.04427 8.21594 4.19027C8.21594 2.33627 9.71457 0.837891 11.5684 0.837891C13.4223 0.837891 14.9208 2.33627 14.9208 4.19027V7.54277L11.5684 7.54264ZM11.5684 9.24427C13.4225 9.24427 14.9208 10.7426 14.9208 12.5966C14.9208 14.4507 13.4225 15.949 11.5683 15.949H3.16219C1.30807 15.949 -0.190308 14.4507 -0.190308 12.5965C-0.190308 10.7428 1.30807 9.24427 3.16207 9.24427H11.5684Z" fill="#36C5F0"/>
<path d="M25.0032 12.5966C25.0032 10.7426 26.5016 9.24414 28.3554 9.24414C30.2094 9.24414 31.708 10.7426 31.708 12.5966C31.708 14.4507 30.2094 15.949 28.3554 15.949H25.0032V12.5966ZM23.3269 12.5966C23.3269 14.4507 21.8284 15.949 19.9745 15.949C18.1205 15.949 16.6221 14.4507 16.6221 12.5965V4.19039C16.6221 2.33627 18.1205 0.837891 19.9745 0.837891C21.8283 0.837891 23.3268 2.33627 23.3268 4.19027L23.3269 12.5966Z" fill="#2EB67D"/>
<path d="M19.9745 26.0314C21.8284 26.0314 23.3269 27.5298 23.3269 29.3836C23.3269 31.2377 21.8284 32.7362 19.9745 32.7362C18.1205 32.7362 16.6221 31.2377 16.6221 29.3836V26.0314H19.9745ZM19.9745 24.3552C18.1205 24.3552 16.6221 22.8567 16.6221 21.0027C16.6221 19.1488 18.1205 17.6504 19.9746 17.6504H28.3808C30.2348 17.6504 31.7333 19.1488 31.7333 21.0028C31.7333 22.8567 30.2348 24.3552 28.3808 24.3552H19.9745Z" fill="#ECB22E"/>
</g>
</g>
</g>
<defs>
<clipPath id="clip0_4_1292">
<rect width="32" height="32" fill="white"/>
</clipPath>
<clipPath id="clip1_4_1292">
<rect width="32" height="32" fill="white"/>
</clipPath>
<clipPath id="clip2_4_1292">
<rect width="32" height="32" fill="white"/>
</clipPath>
</defs>
</svg>
