<svg width="32" height="32" viewBox="0 0 32 32" fill="none" xmlns="http://www.w3.org/2000/svg">
<g clip-path="url(#clip0_4_1959)">
<g clip-path="url(#clip1_4_1959)">
<g clip-path="url(#clip2_4_1959)">
<path d="M15.9991 0.0527344C7.18969 0.0527344 0.0479736 7.19426 0.0479736 16.0036C0.0479736 24.8133 7.18969 31.9542 15.9991 31.9542C24.8094 31.9542 31.9503 24.8133 31.9503 16.0036C31.9503 7.19483 24.8096 0.0527344 15.9991 0.0527344ZM23.314 23.0585C23.0283 23.527 22.4151 23.6756 21.9465 23.3879C18.2014 21.1004 13.4866 20.5822 7.93426 21.8508C7.39922 21.9727 6.86588 21.6375 6.74397 21.1022C6.6215 20.567 6.9554 20.0337 7.49179 19.9118C13.568 18.523 18.78 19.1213 22.9846 21.6908C23.4531 21.9785 23.6017 22.5899 23.314 23.0585ZM25.2665 18.7147C24.9065 19.3004 24.1408 19.4851 23.556 19.1251C19.2683 16.4891 12.7326 15.7259 7.66111 17.2653C7.0034 17.4639 6.30874 17.0933 6.10911 16.4367C5.91102 15.779 6.28188 15.0857 6.93845 14.8857C12.7314 13.1279 19.9331 13.9794 24.8569 17.0051C25.4417 17.3651 25.6265 18.1307 25.2665 18.7147ZM25.434 14.1919C20.2931 11.1385 11.8112 10.8577 6.90283 12.3474C6.11465 12.5865 5.28111 12.1415 5.04226 11.3533C4.8034 10.5647 5.24797 9.73178 6.03674 9.49217C11.6712 7.78169 21.0379 8.11217 26.9568 11.6259C27.6672 12.0467 27.8996 12.9622 27.4786 13.6702C27.0596 14.3793 26.1407 14.613 25.434 14.1919Z" fill="#1ED760"/>
</g>
</g>
</g>
<defs>
<clipPath id="clip0_4_1959">
<rect width="32" height="32" fill="white"/>
</clipPath>
<clipPath id="clip1_4_1959">
<rect width="32" height="32" fill="white"/>
</clipPath>
<clipPath id="clip2_4_1959">
<rect width="32" height="32" fill="white"/>
</clipPath>
</defs>
</svg>
