<svg width="24" height="24" viewBox="0 0 24 24" fill="none" xmlns="http://www.w3.org/2000/svg">
<g clip-path="url(#clip0_4_2106)">
<g clip-path="url(#clip1_4_2106)">
<path d="M5.30774 7.88571C5.30774 5.73969 7.06416 4 9.23082 4C11.3974 4 13.1538 5.73969 13.1538 7.88571C13.1538 10.0317 11.3974 11.7714 9.23082 11.7714C7.06416 11.7714 5.30774 10.0317 5.30774 7.88571Z" fill="#1552F0"/>
<path d="M6.75123 13.5262L6.91563 13.5002C8.44935 13.2578 10.0122 13.2578 11.5459 13.5002L11.7103 13.5262C13.8714 13.8678 15.4615 15.7141 15.4615 17.8817C15.4615 19.0517 14.504 20.0001 13.3228 20.0001H5.13874C3.95755 20.0001 3 19.0517 3 17.8817C3 15.7141 4.59016 13.8678 6.75123 13.5262Z" fill="#1552F0"/>
<path d="M14.7692 4C14.3869 4 14.0769 4.307 14.0769 4.68571C14.0769 5.06442 14.3869 5.37143 14.7692 5.37143C16.1712 5.37143 17.3077 6.49711 17.3077 7.88571C17.3077 9.27431 16.1712 10.4 14.7692 10.4C14.3869 10.4 14.0769 10.707 14.0769 11.0857C14.0769 11.4644 14.3869 11.7714 14.7692 11.7714C16.9359 11.7714 18.6923 10.0317 18.6923 7.88571C18.6923 5.73969 16.9359 4 14.7692 4Z" fill="#1552F0"/>
<path d="M15.915 13.4917C15.5327 13.4917 15.2227 13.7987 15.2227 14.1774C15.2227 14.5561 15.5327 14.8631 15.915 14.8631H16.8087C16.883 14.8631 16.9574 14.8689 17.0307 14.8805C18.5198 15.1159 19.6155 16.3881 19.6155 17.8817C19.6155 18.2942 19.2779 18.6286 18.8614 18.6286H16.9754C16.593 18.6286 16.2831 18.9357 16.2831 19.3144C16.2831 19.6931 16.593 20.0001 16.9754 20.0001H18.8614C20.0426 20.0001 21.0001 19.0517 21.0001 17.8817C21.0001 15.7141 19.4099 13.8678 17.2489 13.5262C17.1033 13.5032 16.956 13.4917 16.8087 13.4917H15.915Z" fill="#1552F0"/>
</g>
</g>
<defs>
<clipPath id="clip0_4_2106">
<rect width="24" height="24" fill="white"/>
</clipPath>
<clipPath id="clip1_4_2106">
<rect width="24" height="24" fill="white"/>
</clipPath>
</defs>
</svg>
